REM DIRINDEX 1\2\5,1\2\6,1\2\7,1\2\8,1\3\9,1\3\10,1\3\11,1\4\12,1\4\13,1\4\14,1\4\15,1\4\16
REM DIRNAME folder01,folder02,folder03,folder04,folder05,folder06,folder07,folder08,folder09,folder10,folder11,folder12,folder13,folder14,folder15,folder16
TITLE ""
FILE "1200_sec01_0122_0128.mp3" MP3
  TRACK 01 AUDIO
    TITLE "0:"
    INDEX 01 00:00:00
  TRACK 02 AUDIO
    TITLE "12:cjc034_04114"
    INDEX 01 00:00:19
  TRACK 03 AUDIO
    TITLE "0:"
    INDEX 01 00:01:52
  TRACK 04 AUDIO
    TITLE "13:cjc034_04115"
    INDEX 01 00:02:14
  TRACK 05 AUDIO
    TITLE "0:"
    INDEX 01 00:03:47
  TRACK 06 AUDIO
    TITLE "14:cjc034_04116"
    INDEX 01 00:04:07
  TRACK 07 AUDIO
    TITLE "0:"
    INDEX 01 00:05:40
  TRACK 08 AUDIO
    TITLE "15:cjc034_04117"
    INDEX 01 00:06:08
  TRACK 09 AUDIO
    TITLE "0:"
    INDEX 01 00:09:67
  TRACK 10 AUDIO
    TITLE "12:cjc034_04118"
    INDEX 01 00:11:27
  TRACK 11 AUDIO
    TITLE "0:"
    INDEX 01 00:12:28
  TRACK 12 AUDIO
    TITLE "13:cjc034_04119"
    INDEX 01 00:12:69
  TRACK 13 AUDIO
    TITLE "0:"
    INDEX 01 00:21:64
  TRACK 14 AUDIO
    TITLE "14:cjc034_04120"
    INDEX 01 00:22:23
  TRACK 15 AUDIO
    TITLE "0:"
    INDEX 01 00:23:26
  TRACK 16 AUDIO
    TITLE "15:cjc034_04121"
    INDEX 01 00:23:69
  TRACK 17 AUDIO
    TITLE "0:"
    INDEX 01 00:26:56
  TRACK 18 AUDIO
    TITLE "12:cjc034_04122"
    INDEX 01 00:28:17
  TRACK 19 AUDIO
    TITLE "0:"
    INDEX 01 00:29:29
  TRACK 20 AUDIO
    TITLE "13:cjc034_04123"
    INDEX 01 00:29:64
  TRACK 21 AUDIO
    TITLE "0:"
    INDEX 01 00:30:63
  TRACK 22 AUDIO
    TITLE "14:cjc034_04124"
    INDEX 01 00:31:24
  TRACK 23 AUDIO
    TITLE "0:"
    INDEX 01 00:32:35
  TRACK 24 AUDIO
    TITLE "15:cjc034_04125"
    INDEX 01 00:32:70
  TRACK 25 AUDIO
    TITLE "0:"
    INDEX 01 00:35:25
  TRACK 26 AUDIO
    TITLE "12:cjc034_04126"
    INDEX 01 00:36:56
  TRACK 27 AUDIO
    TITLE "0:"
    INDEX 01 00:37:57
  TRACK 28 AUDIO
    TITLE "13:cjc034_04127"
    INDEX 01 00:38:16
  TRACK 29 AUDIO
    TITLE "0:"
    INDEX 01 00:39:11
  TRACK 30 AUDIO
    TITLE "14:cjc034_04128"
    INDEX 01 00:39:45
  TRACK 31 AUDIO
    TITLE "0:"
    INDEX 01 00:40:44
  TRACK 32 AUDIO
    TITLE "15:cjc034_04129"
    INDEX 01 00:41:10
  TRACK 33 AUDIO
    TITLE "0:"
    INDEX 01 00:44:71
  TRACK 34 AUDIO
    TITLE "16:cjc034_04130"
    INDEX 01 00:46:29
  TRACK 35 AUDIO
    TITLE "0:"
    INDEX 01 00:47:70
  TRACK 36 AUDIO
    TITLE "12:cjc034_04131"
    INDEX 01 00:48:73
  TRACK 37 AUDIO
    TITLE "0:"
    INDEX 01 00:50:07
  TRACK 38 AUDIO
    TITLE "13:cjc034_04132"
    INDEX 01 00:50:42
  TRACK 39 AUDIO
    TITLE "0:"
    INDEX 01 00:53:60
  TRACK 40 AUDIO
    TITLE "14:cjc034_04133"
    INDEX 01 00:54:21
  TRACK 41 AUDIO
    TITLE "0:"
    INDEX 01 00:55:26
  TRACK 42 AUDIO
    TITLE "15:cjc034_04134"
    INDEX 01 00:55:63
  TRACK 43 AUDIO
    TITLE "0:"
    INDEX 01 00:58:44
  TRACK 44 AUDIO
    TITLE "12:cjc034_04135"
    INDEX 01 01:00:04
  TRACK 45 AUDIO
    TITLE "0:"
    INDEX 01 01:01:33
  TRACK 46 AUDIO
    TITLE "13:cjc034_04136"
    INDEX 01 01:01:64
  TRACK 47 AUDIO
    TITLE "0:"
    INDEX 01 01:02:65
  TRACK 48 AUDIO
    TITLE "14:cjc034_04137"
    INDEX 01 01:03:26
  TRACK 49 AUDIO
    TITLE "0:"
    INDEX 01 01:04:56
  TRACK 50 AUDIO
    TITLE "15:cjc034_04138"
    INDEX 01 01:05:13
  TRACK 51 AUDIO
    TITLE "0:"
    INDEX 01 01:08:54
  TRACK 52 AUDIO
    TITLE "12:cjc034_04139"
    INDEX 01 01:10:12
  TRACK 53 AUDIO
    TITLE "0:"
    INDEX 01 01:11:41
  TRACK 54 AUDIO
    TITLE "13:cjc034_04140"
    INDEX 01 01:12:01
  TRACK 55 AUDIO
    TITLE "0:"
    INDEX 01 01:14:31
  TRACK 56 AUDIO
    TITLE "14:cjc034_04141"
    INDEX 01 01:14:66
  TRACK 57 AUDIO
    TITLE "0:"
    INDEX 01 01:16:18
  TRACK 58 AUDIO
    TITLE "15:cjc034_04142"
    INDEX 01 01:16:54
  TRACK 59 AUDIO
    TITLE "0:"
    INDEX 01 01:20:18
